HIERARCHY
ROOT Hips
{
	OFFSET 0.000000 0.000000 0.000000
	CHANNELS 6 Xposition Yposition Zposition Xrotation Yrotation Zrotation
	JOINT LeftUpLeg_virtual
	{
		OFFSET 0.000000 0.000000 0.000000
		CHANNELS 3 Xrotation Yrotation Zrotation
		JOINT LeftUpLeg
		{
			OFFSET 11.394100 -6.187798 -0.413800
			CHANNELS 3 Xrotation Yrotation Zrotation
			JOINT LeftLeg
			{
				OFFSET 0.430247 -32.302673 3.732800
				CHANNELS 3 Xrotation Yrotation Zrotation
				JOINT LeftFoot
				{
					OFFSET -0.430247 -48.264931 -6.423300
					CHANNELS 3 Xrotation Yrotation Zrotation
					JOINT LeftToeBase
					{
						OFFSET 4.230900 -16.068199 23.438400
						CHANNELS 3 Xrotation Yrotation Zrotation
						JOINT LeftToe_End
						{
							OFFSET 4.510700 0.695400 19.974600
							CHANNELS 3 Xrotation Yrotation Zrotation
							End Site
							{
								OFFSET 0 0 0
							}
						}
					}
				}
			}
		}
	}
	JOINT RightUpLeg_virtual
	{
		OFFSET 0.000000 0.000000 0.000000
		CHANNELS 3 Xrotation Yrotation Zrotation
		JOINT RightUpLeg
		{
			OFFSET -11.333700 -6.187798 -0.413800
			CHANNELS 3 Xrotation Yrotation Zrotation
			JOINT RightLeg
			{
				OFFSET -0.430392 -32.302628 3.733000
				CHANNELS 3 Xrotation Yrotation Zrotation
				JOINT RightFoot
				{
					OFFSET 0.430392 -48.264973 -6.423500
					CHANNELS 3 Xrotation Yrotation Zrotation
					JOINT RightToeBase
					{
						OFFSET -4.230900 -16.068199 23.438400
						CHANNELS 3 Xrotation Yrotation Zrotation
						JOINT RightToe_End
						{
							OFFSET -4.510700 0.695400 19.974600
							CHANNELS 3 Xrotation Yrotation Zrotation
							End Site
							{
								OFFSET 0 0 0
							}
						}
					}
				}
			}
		}
	}
	JOINT Spine_virtual
	{
		OFFSET 0.000000 0.000000 0.000000
		CHANNELS 3 Xrotation Yrotation Zrotation
		JOINT Spine
		{
			OFFSET -0.002400 12.777504 0.315300
			CHANNELS 3 Xrotation Yrotation Zrotation
			JOINT Spine1
			{
				OFFSET -0.002067 5.816869 0.032633
				CHANNELS 3 Xrotation Yrotation Zrotation
				JOINT Spine1_split
				{
					OFFSET -0.002067 5.816869 0.032633
					CHANNELS 3 Xrotation Yrotation Zrotation
					JOINT Spine2
					{
						OFFSET -0.002067 5.816869 0.032633
						CHANNELS 3 Xrotation Yrotation Zrotation
						JOINT Neck_virtual
						{
							OFFSET 0.000000 0.000000 0.000000
							CHANNELS 3 Xrotation Yrotation Zrotation
							JOINT Neck
							{
								OFFSET -0.003700 21.199493 -0.826900
								CHANNELS 3 Xrotation Yrotation Zrotation
								JOINT Head
								{
									OFFSET 0.000000 20.442200 4.834800
									CHANNELS 3 Xrotation Yrotation Zrotation
									JOINT HeadTop_End
									{
										OFFSET 0.000000 34.668396 4.968400
										CHANNELS 3 Xrotation Yrotation Zrotation
										End Site
										{
											OFFSET 0 0 0
										}
									}
								}
							}
						}
						JOINT LeftShoulder_virtual
						{
							OFFSET 0.000000 0.000000 0.000000
							CHANNELS 3 Xrotation Yrotation Zrotation
							JOINT LeftShoulder
							{
								OFFSET 3.288150 8.794197 -1.372250
								CHANNELS 3 Xrotation Yrotation Zrotation
								JOINT LeftShoulder_split
								{
									OFFSET 3.288150 8.794197 -1.372250
									CHANNELS 3 Xrotation Yrotation Zrotation
									JOINT LeftArm
									{
										OFFSET 11.953299 -2.279007 -0.146200
										CHANNELS 3 Xrotation Yrotation Zrotation
										JOINT LeftForeArm
										{
											OFFSET 18.448900 0.000000 0.000000
											CHANNELS 3 Xrotation Yrotation Zrotation
											JOINT LeftHand
											{
												OFFSET 29.527798 0.000000 0.000000
												CHANNELS 3 Xrotation Yrotation Zrotation
												End Site
												{
													OFFSET 0 0 0
												}
											}
										}
									}
								}
							}
						}
						JOINT RightShoulder_virtual
						{
							OFFSET 0.000000 0.000000 0.000000
							CHANNELS 3 Xrotation Yrotation Zrotation
							JOINT RightShoulder
							{
								OFFSET -3.249400 8.794197 -1.372250
								CHANNELS 3 Xrotation Yrotation Zrotation
								JOINT RightShoulder_split
								{
									OFFSET -3.249400 8.794197 -1.372250
									CHANNELS 3 Xrotation Yrotation Zrotation
									JOINT RightArm
									{
										OFFSET -11.953299 -2.279007 -0.146200
										CHANNELS 3 Xrotation Yrotation Zrotation
										JOINT RightForeArm
										{
											OFFSET -18.448900 0.000000 0.000000
											CHANNELS 3 Xrotation Yrotation Zrotation
											JOINT RightHand
											{
												OFFSET -29.527802 0.000000 0.000000
												CHANNELS 3 Xrotation Yrotation Zrotation
												End Site
												{
													OFFSET 0 0 0
												}
											}
										}
									}
								}
							}
						}
					}
				}
			}
		}
	}
}
MOTION
Frames: 9
Frame Time: 0.03333333
-6.568735 91.679352 4.041988 0.000000 0.000000 0.000000 -21.429789 -67.184719 -21.513308 -34.215293 -0.345634 25.195017 38.174901 10.807896 -5.727926 2.631182 2.098163 -9.924764 1.933932 2.454116 0.105485 0.000000 0.000000 0.000000 -21.616657 -60.880809 -18.584815 -24.742961 -21.481032 -19.700531 39.844663 -12.384467 1.064862 -9.466028 -3.115814 12.513005 -6.340693 -4.173195 8.278357 0.000000 0.000000 0.000000 -29.947132 -63.189966 -25.827751 5.802153 12.694672 4.013119 2.980072 2.491007 1.537189 0.288280 3.964418 0.429696 0.000000 0.000000 0.000000 13.979508 5.568360 -2.074067 11.925395 7.441121 -2.533505 25.253212 43.583376 -13.549615 0.000000 0.000000 0.000000 14.175403 4.853803 -1.778829 9.834852 -11.292922 -6.398594 -1.499379 -14.443284 -4.166276 2.922835 -12.368296 -36.693402 -86.460749 7.980968 -79.590207 0.000000 0.000000 0.000000 14.314857 6.214960 -0.051315 3.595949 6.289983 -10.614319 -1.563635 -2.960308 -11.782024 -10.855493 31.855053 41.336431 -65.824111 74.200976 54.442509 0.000000 0.000000 0.000000 
-6.594813 91.790901 5.732540 0.000000 0.000000 0.000000 -21.211555 -67.253888 -21.329361 -34.137231 0.673933 25.614319 38.660257 10.312875 -5.807880 2.089559 1.973449 -9.853058 1.464889 2.323708 0.718759 0.000000 0.000000 0.000000 -21.032733 -61.150117 -18.122129 -25.247367 -20.867328 -19.443605 40.529806 -12.282577 0.691424 -9.180569 -3.913384 12.138330 -5.376838 -4.358515 9.052947 0.000000 0.000000 0.000000 -28.149081 -63.185752 -24.534615 5.829467 12.535444 3.988111 3.442826 2.734317 1.636124 0.008390 5.143617 0.293407 0.000000 0.000000 0.000000 14.053909 5.904947 -2.072734 11.619742 7.382375 -2.320978 24.619673 44.143581 -14.033191 0.000000 0.000000 0.000000 14.549660 5.206114 -1.875940 10.063631 -11.089496 -5.761750 -3.079592 -12.162367 -5.496099 1.464440 -10.585779 -37.690087 -86.351070 8.591397 -79.269475 0.000000 0.000000 0.000000 15.023839 6.645403 -0.124371 3.372065 8.191709 -11.010645 -2.157428 -1.657103 -11.516177 -10.596631 33.266716 41.994411 -68.183326 74.531721 56.670240 0.000000 0.000000 0.000000 
-6.309882 91.776939 7.657360 0.000000 0.000000 0.000000 -20.206739 -66.142234 -20.163956 -35.273890 2.193264 25.614844 40.061375 9.338801 -6.014382 0.256083 2.141585 -9.017368 0.757034 2.175159 1.576948 0.000000 0.000000 0.000000 -19.536356 -60.344612 -16.687602 -26.184205 -19.835590 -18.713689 41.623928 -11.370191 0.011480 -8.565867 -4.887220 12.232409 -4.869899 -4.278142 9.062876 0.000000 0.000000 0.000000 -25.159029 -62.922571 -21.965731 6.112529 12.376871 4.350819 3.508044 3.813027 1.552694 -0.321509 5.942470 0.343552 0.000000 0.000000 0.000000 14.120593 7.001019 -2.243874 10.396273 7.675217 -2.563672 23.362910 45.070390 -15.220641 0.000000 0.000000 0.000000 14.486647 6.441209 -2.122487 10.166728 -11.048416 -4.712110 -3.844810 -10.201306 -6.419723 -1.587501 -7.876712 -39.665446 -86.935502 8.832522 -79.714236 0.000000 0.000000 0.000000 15.653723 7.877599 -0.470321 3.443543 10.996587 -10.915257 -2.631661 -1.697603 -12.460386 -9.000523 35.173268 41.938728 -70.237506 74.505124 58.558839 0.000000 0.000000 0.000000 
-5.901214 91.708702 9.378796 0.000000 0.000000 0.000000 -18.514942 -64.224685 -18.224859 -37.159562 3.800934 24.980129 41.994803 7.922107 -6.102812 -2.124541 2.450956 -7.762333 -0.042083 1.996176 2.402112 0.000000 0.000000 0.000000 -17.653075 -58.873178 -14.806293 -27.673196 -18.427898 -17.606761 43.025318 -9.696114 -0.928334 -7.621175 -5.783263 12.891185 -5.101081 -3.969230 8.353179 0.000000 0.000000 0.000000 -21.407263 -62.359661 -18.599910 6.420020 12.170124 4.993690 3.199861 5.416421 1.393072 -0.464944 5.828336 0.254788 0.000000 0.000000 0.000000 14.226932 8.590413 -2.497073 8.504185 8.373061 -2.965263 21.875306 46.071351 -16.935623 0.000000 0.000000 0.000000 14.210950 8.233796 -2.487122 10.195855 -11.403734 -3.372529 -3.598309 -8.784809 -7.122696 -5.918961 -5.309341 -42.254593 -87.401785 8.815009 -80.238679 0.000000 0.000000 0.000000 16.166865 9.619644 -1.020145 3.754310 14.047889 -10.338273 -3.136324 -3.430556 -13.354405 -6.845778 36.706297 41.554273 -72.899278 74.247407 61.027235 0.000000 0.000000 0.000000 
-5.359199 91.465622 10.923252 0.000000 0.000000 0.000000 -16.536691 -61.781540 -15.924552 -39.210463 5.122641 23.768203 43.894081 6.165790 -5.909971 -3.988906 2.713996 -6.578013 -0.931122 1.766972 3.043978 0.000000 0.000000 0.000000 -15.664358 -56.827310 -12.740021 -29.251525 -16.658300 -16.127284 44.345659 -7.471812 -2.137732 -6.945868 -6.500632 13.746581 -5.978001 -3.494978 7.085480 0.000000 0.000000 0.000000 -17.477848 -61.369229 -15.039069 6.687402 11.803349 5.614629 2.603681 7.211575 1.235812 -0.663892 5.162309 0.556498 0.000000 0.000000 0.000000 14.342410 10.373168 -2.740151 6.111452 9.412586 -3.111620 20.614537 47.086023 -18.919320 0.000000 0.000000 0.000000 13.938169 10.195237 -2.933855 10.226833 -12.069013 -1.994356 -2.823923 -7.648179 -7.246237 -10.987298 -3.603430 -44.777832 -87.142586 8.766719 -80.251000 0.000000 0.000000 0.000000 16.459166 11.528226 -1.645792 4.189330 16.941280 -9.598188 -3.570057 -5.536890 -13.757207 -5.143566 37.532050 41.532290 -77.107467 73.875039 65.045394 0.000000 0.000000 0.000000 
-4.793072 91.245979 12.192543 0.000000 0.000000 0.000000 -14.252870 -58.921597 -13.372033 -40.967345 6.006875 22.012315 45.080386 4.346074 -5.370938 -4.691892 2.848730 -5.607173 -1.413669 1.470275 3.345245 0.000000 0.000000 0.000000 -13.522147 -54.368063 -10.587144 -30.219923 -14.623744 -14.293605 45.396719 -4.953621 -3.478845 -7.142795 -6.962537 14.281913 -7.063579 -2.920743 5.578142 0.000000 0.000000 0.000000 -13.945009 -60.209361 -11.973747 6.918957 11.202049 5.946398 1.784294 8.949077 1.152475 -0.720568 4.210797 0.837537 0.000000 0.000000 0.000000 14.322219 12.094298 -2.952948 3.532283 10.772784 -2.735778 20.009476 48.281419 -20.810938 0.000000 0.000000 0.000000 13.814160 11.985460 -3.417676 10.289164 -12.813865 -0.774641 -1.767893 -6.661911 -7.144222 -16.040329 -3.266197 -46.802075 -86.064393 8.806463 -79.699203 0.000000 0.000000 0.000000 16.578247 13.324370 -2.271093 4.671838 19.243882 -8.955327 -3.576918 -7.025952 -13.966565 -4.918768 37.589113 42.633067 -82.423929 73.377221 70.232479 0.000000 0.000000 0.000000 
-4.221541 91.081467 13.509392 0.000000 0.000000 0.000000 -11.860818 -55.758663 -10.762050 -42.202055 6.366316 19.973650 45.138897 2.527210 -4.513165 -4.261145 2.646359 -4.822907 -1.305567 1.119146 3.332086 0.000000 0.000000 0.000000 -11.393305 -51.668301 -8.467829 -30.353142 -12.436687 -12.162384 46.257883 -2.405520 -4.728248 -8.035986 -7.084656 14.146030 -8.090558 -2.303654 4.143574 0.000000 0.000000 0.000000 -10.873752 -58.967537 -9.525970 7.123588 10.436285 5.853181 0.885370 10.495473 1.157569 -0.625713 3.567154 1.025048 0.000000 0.000000 0.000000 14.130256 13.651039 -3.133877 1.107125 12.411932 -1.796513 19.750551 49.529578 -21.929803 0.000000 0.000000 0.000000 13.918531 13.505735 -3.880532 10.303270 -13.375462 0.092113 -0.390307 -5.531393 -7.262317 -20.414168 -4.158832 -48.365164 -84.515340 8.912152 -79.038293 0.000000 0.000000 0.000000 16.512279 14.888521 -2.841324 5.080233 20.875010 -8.636868 -3.296108 -7.958499 -13.754311 -6.102969 37.137808 45.020219 -87.649366 72.836905 75.457840 0.000000 0.000000 0.000000 
-3.630838 90.921661 14.831631 0.000000 0.000000 0.000000 -9.544944 -52.325454 -8.336202 -42.824132 5.990671 17.921875 44.134514 0.780429 -3.412825 -3.340554 1.967353 -3.997739 -0.471028 0.750254 3.002895 0.000000 0.000000 0.000000 -9.377150 -48.628874 -6.467724 -29.704360 -10.332500 -9.809344 47.184490 0.025563 -5.707448 -9.174429 -6.811744 13.426987 -8.814672 -1.710757 3.026046 0.000000 0.000000 0.000000 -8.401388 -57.639481 -7.680633 7.423767 9.632647 5.316673 0.037127 11.850472 1.214430 -0.773386 3.625646 0.957190 0.000000 0.000000 0.000000 13.812253 15.025848 -3.264785 -0.839738 14.020190 -0.458458 19.551557 50.982861 -21.932636 0.000000 0.000000 0.000000 14.139577 14.804428 -4.231013 10.188271 -13.464891 0.547265 0.558256 -4.334754 -7.376277 -23.296285 -5.802893 -49.495847 -83.154234 9.099771 -78.862880 0.000000 0.000000 0.000000 16.373951 16.231721 -3.269419 5.394863 21.766394 -8.670175 -3.220455 -8.170740 -13.463341 -7.867758 36.563095 48.132678 -92.165787 72.468375 80.147339 0.000000 0.000000 0.000000 
-3.128098 90.737312 16.185848 0.000000 0.000000 0.000000 -7.634119 -48.447235 -6.389278 -42.808101 4.667827 15.834018 42.703767 -0.742453 -2.185088 -2.651477 0.807815 -2.991651 0.780612 0.412503 2.455608 0.000000 0.000000 0.000000 -7.561036 -45.307247 -4.753280 -28.491407 -8.684837 -7.388148 47.931566 2.275455 -6.376812 -10.258986 -6.075054 12.388635 -9.024484 -1.206566 2.385983 0.000000 0.000000 0.000000 -6.496875 -56.121889 -6.293688 7.878552 8.958917 4.547808 -0.716569 13.070778 1.306687 -0.771179 4.089651 0.420683 0.000000 0.000000 0.000000 13.391788 16.282835 -3.369584 -1.922801 15.323955 1.036649 18.945152 52.485503 -20.569316 0.000000 0.000000 0.000000 14.302194 16.005935 -4.423131 9.925807 -13.286940 0.617058 0.814290 -3.361749 -7.258104 -24.671046 -7.572276 -50.231892 -82.158208 9.370907 -79.276783 0.000000 0.000000 0.000000 16.350928 17.422590 -3.604065 5.615529 21.874710 -8.900034 -3.723263 -7.576649 -13.146360 -9.177472 35.961267 51.211802 -96.146141 72.462119 84.517533 0.000000 0.000000 0.000000 
